# xmcd CD database file
#
# Track frame offsets:
#	150
#	18840
#	36323
#	52373
#	67200
#	80979
#	93849
#	105924
#	117297
#	128046
#	138240
#	152430
#	165950
#	178742
#	191022
#	202797
#	214178
#	228452
#	242169
#	255305
#	268054
#	280385
#	292380
#	306705
#	320546
#
# Disc length: 4451 seconds
#
# Revision: 1
# Processed by: cddbd v1.5.2PL0 Copyright (c) Steve Scherf et al.
# Submitted via: CDex 1.70beta2
#
DISCID=78116119
DTITLE=Sheldon Zandboer - Tao Of Improvisation (audio cd)
DYEAR=2008
DGENRE=Jazz
TTITLE0=50 bpm
TTITLE1=55 bpm
TTITLE2=60 bpm
TTITLE3=65 bpm
TTITLE4=70 bpm
TTITLE5=75 bpm
TTITLE6=80 bpm
TTITLE7=85 bpm
TTITLE8=90 bpm
TTITLE9=95 bpm
TTITLE10=100 bpm
TTITLE11=105 bpm
TTITLE12=110 bpm
TTITLE13=115 bpm
TTITLE14=120 bpm
TTITLE15=125 bpm
TTITLE16=130 bpm
TTITLE17=135 bpm
TTITLE18=140 bpm
TTITLE19=145 bpm
TTITLE20=150 bpm
TTITLE21=155 bpm
TTITLE22=160 bpm
TTITLE23=165 bpm
TTITLE24=170 bpm
EXTD=YEAR: 2008
EXTT0=
EXTT1=
EXTT2=
EXTT3=
EXTT4=
EXTT5=
EXTT6=
EXTT7=
EXTT8=
EXTT9=
EXTT10=
EXTT11=
EXTT12=
EXTT13=
EXTT14=
EXTT15=
EXTT16=
EXTT17=
EXTT18=
EXTT19=
EXTT20=
EXTT21=
EXTT22=
EXTT23=
EXTT24=
PLAYORDER=
